<?xml version="1.0" standalone="no"?>
<!DOCTYPE svg PUBLIC "-//W3C//DTD SVG 20010904//EN"
 "http://www.w3.org/TR/2001/REC-SVG-20010904/DTD/svg10.dtd">
<svg version="1.0" xmlns="http://www.w3.org/2000/svg"
 width="980.000000pt" height="980.000000pt" viewBox="0 0 980.000000 980.000000"
 preserveAspectRatio="xMidYMid meet">

<g transform="translate(0.000000,980.000000) scale(0.100000,-0.100000)"
fill="#000000" stroke="none">
<path d="M0 4900 l0 -4900 4900 0 4900 0 0 4900 0 4900 -4900 0 -4900 0 0
-4900z m5265 3356 c194 -49 393 -172 520 -322 191 -225 329 -557 394 -949 38
-229 45 -336 45 -615 0 -407 -38 -680 -131 -938 -53 -149 -61 -234 -29 -289
96 -158 481 -83 1026 199 263 137 265 138 335 155 247 61 356 -177 249 -543
-108 -373 -383 -723 -744 -947 -281 -174 -386 -283 -440 -456 -26 -83 -26
-204 1 -374 41 -259 5 -359 -164 -461 -126 -75 -347 -136 -497 -136 -122 0
-197 21 -345 97 -124 64 -133 67 -200 68 -59 0 -81 -5 -136 -32 -130 -64 -313
-227 -538 -478 -304 -340 -455 -467 -698 -589 -191 -96 -343 -131 -558 -131
-209 1 -343 31 -540 124 -87 41 -239 136 -268 169 -14 16 -12 17 37 17 42 0
60 6 89 28 84 64 117 173 117 394 0 317 -76 692 -280 1373 -225 752 -360 1412
-411 2005 -15 181 -15 570 0 705 53 475 204 713 451 714 248 0 397 -160 444
-477 12 -76 16 -185 16 -398 1 -395 17 -500 84 -544 93 -61 316 55 420 218 85
135 125 420 126 883 0 488 63 801 205 1030 93 149 248 286 421 372 127 64 373
132 564 156 19 2 103 3 185 1 119 -3 170 -9 250 -29z"/>
<path d="M4241 7555 c-70 -64 -111 -202 -111 -380 0 -178 41 -316 111 -380 72
-64 133 -40 194 77 40 75 57 169 57 303 1 138 -18 229 -65 318 -52 100 -119
122 -186 62z"/>
<path d="M5176 7559 c-154 -134 -155 -633 -2 -767 66 -58 130 -35 184 65 46
88 65 177 65 318 0 140 -18 229 -65 318 -53 99 -118 122 -182 66z"/>
<path d="M4501 6420 c-123 -26 -224 -115 -290 -255 -24 -49 -54 -113 -67 -140
-13 -28 -24 -61 -24 -73 0 -105 195 -219 519 -303 415 -107 711 -65 785 113
69 164 -123 389 -479 563 -172 84 -332 118 -444 95z"/>
</g>
</svg>
