<?xml version="1.0" encoding="UTF-8"?>
<svg xmlns="http://www.w3.org/2000/svg" xmlns:xlink="http://www.w3.org/1999/xlink" width="24px" height="24px" viewBox="0 0 24 24" version="1.1">
<g id="surface1">
<path style=" stroke:none;fill-rule:nonzero;fill:rgb(0%,0%,0%);fill-opacity:1;" d="M 0 12 L 0 24 L 24 24 L 24 0 L 0 0 Z M 12.894531 3.78125 C 13.367188 3.902344 13.855469 4.203125 14.167969 4.570312 C 14.636719 5.121094 14.972656 5.933594 15.132812 6.894531 C 15.226562 7.453125 15.242188 7.714844 15.242188 8.398438 C 15.242188 9.398438 15.148438 10.066406 14.921875 10.695312 C 14.792969 11.0625 14.773438 11.269531 14.851562 11.40625 C 15.085938 11.792969 16.027344 11.609375 17.363281 10.917969 C 18.007812 10.582031 18.011719 10.578125 18.183594 10.539062 C 18.789062 10.386719 19.054688 10.972656 18.792969 11.867188 C 18.527344 12.78125 17.855469 13.636719 16.972656 14.1875 C 16.285156 14.613281 16.027344 14.878906 15.894531 15.304688 C 15.832031 15.507812 15.832031 15.804688 15.894531 16.21875 C 15.996094 16.855469 15.910156 17.097656 15.496094 17.347656 C 15.1875 17.53125 14.644531 17.679688 14.277344 17.679688 C 13.980469 17.679688 13.796875 17.628906 13.433594 17.445312 C 13.128906 17.289062 13.105469 17.28125 12.941406 17.277344 C 12.796875 17.277344 12.746094 17.289062 12.609375 17.355469 C 12.292969 17.511719 11.84375 17.910156 11.292969 18.527344 C 10.546875 19.359375 10.179688 19.671875 9.582031 19.96875 C 9.113281 20.203125 8.742188 20.289062 8.214844 20.289062 C 7.703125 20.289062 7.375 20.214844 6.894531 19.984375 C 6.679688 19.886719 6.308594 19.652344 6.238281 19.570312 C 6.203125 19.53125 6.207031 19.53125 6.328125 19.53125 C 6.429688 19.53125 6.476562 19.515625 6.546875 19.460938 C 6.75 19.304688 6.832031 19.039062 6.832031 18.496094 C 6.832031 17.722656 6.648438 16.800781 6.148438 15.132812 C 5.597656 13.292969 5.265625 11.675781 5.140625 10.222656 C 5.105469 9.78125 5.105469 8.828125 5.140625 8.496094 C 5.269531 7.335938 5.640625 6.75 6.246094 6.75 C 6.851562 6.75 7.21875 7.140625 7.332031 7.917969 C 7.363281 8.105469 7.371094 8.371094 7.371094 8.890625 C 7.375 9.859375 7.414062 10.117188 7.578125 10.222656 C 7.804688 10.375 8.351562 10.089844 8.605469 9.691406 C 8.8125 9.359375 8.910156 8.660156 8.914062 7.527344 C 8.914062 6.332031 9.070312 5.566406 9.417969 5.003906 C 9.644531 4.640625 10.023438 4.304688 10.449219 4.09375 C 10.757812 3.9375 11.359375 3.769531 11.828125 3.710938 C 11.875 3.707031 12.082031 3.707031 12.28125 3.710938 C 12.574219 3.71875 12.699219 3.730469 12.894531 3.78125 Z M 12.894531 3.78125 "/>
<path style=" stroke:none;fill-rule:nonzero;fill:rgb(0%,0%,0%);fill-opacity:1;" d="M 10.386719 5.496094 C 10.214844 5.65625 10.113281 5.992188 10.113281 6.429688 C 10.113281 6.863281 10.214844 7.203125 10.386719 7.359375 C 10.5625 7.515625 10.710938 7.457031 10.859375 7.171875 C 10.960938 6.988281 11 6.757812 11 6.429688 C 11.003906 6.089844 10.957031 5.867188 10.839844 5.648438 C 10.714844 5.40625 10.550781 5.351562 10.386719 5.496094 Z M 10.386719 5.496094 "/>
<path style=" stroke:none;fill-rule:nonzero;fill:rgb(0%,0%,0%);fill-opacity:1;" d="M 12.675781 5.488281 C 12.296875 5.816406 12.296875 7.039062 12.671875 7.367188 C 12.832031 7.507812 12.988281 7.453125 13.121094 7.207031 C 13.234375 6.992188 13.28125 6.773438 13.28125 6.429688 C 13.28125 6.085938 13.238281 5.867188 13.121094 5.648438 C 12.992188 5.40625 12.832031 5.351562 12.675781 5.488281 Z M 12.675781 5.488281 "/>
<path style=" stroke:none;fill-rule:nonzero;fill:rgb(0%,0%,0%);fill-opacity:1;" d="M 11.023438 8.277344 C 10.722656 8.339844 10.472656 8.558594 10.3125 8.902344 C 10.253906 9.023438 10.179688 9.179688 10.148438 9.246094 C 10.117188 9.3125 10.089844 9.394531 10.089844 9.421875 C 10.089844 9.679688 10.566406 9.960938 11.359375 10.164062 C 12.378906 10.429688 13.101562 10.324219 13.285156 9.890625 C 13.453125 9.488281 12.980469 8.9375 12.109375 8.511719 C 11.6875 8.304688 11.296875 8.222656 11.023438 8.277344 Z M 11.023438 8.277344 "/>
</g>
</svg>
